<svg width="501" height="308" viewBox="0 0 501 308" fill="none" xmlns="http://www.w3.org/2000/svg">
<g clip-path="url(#clip0_39_114)">
<path opacity="0.1" d="M501 197.821C501.009 206.166 499.999 214.481 497.993 222.581C497.318 225.311 496.534 227.983 495.641 230.599C494.548 233.828 493.281 236.996 491.846 240.088C491.123 241.653 490.359 243.186 489.554 244.688C489.567 253.246 487.804 261.713 484.377 269.555C478.182 283.624 467.135 295.001 453.249 301.61C444.567 305.75 435.079 307.928 425.46 307.987H95.1069C80.4088 308.019 65.9646 304.159 53.2427 296.802L53.0471 296.691C51.235 295.631 49.4683 294.509 47.7471 293.324C43.8742 290.65 40.2356 287.652 36.8705 284.362C32.3159 279.914 28.3025 274.944 24.9136 269.555C16.9542 256.923 12.7377 242.296 12.7525 227.368C4.69189 213.232 -0.00836182 196.299 -0.00836182 178.103C-0.00836182 155.146 7.461 134.204 19.7327 118.35C22.2911 115.038 25.0935 111.922 28.1166 109.027C31.0994 106.162 34.3054 103.539 37.7043 101.183C40.4236 99.2957 43.2656 97.5913 46.2115 96.0813C47.4408 95.4564 48.6743 94.8654 49.9292 94.317C51.0308 93.8281 52.1453 93.3732 53.2725 92.9438C54.6252 92.4308 55.9948 91.9589 57.3815 91.5281C58.7682 91.0973 60.1364 90.7203 61.4863 90.3972C63.4713 89.9126 65.4903 89.5186 67.5434 89.2153C69.2449 88.9645 70.9463 88.7902 72.6478 88.6584C74.0004 88.5564 75.3658 88.5011 76.7397 88.4841H77.4841C78.9984 88.4841 80.5042 88.5436 81.9972 88.6457C82.1546 88.3311 82.3247 88.0122 82.4821 87.7018C83.0776 86.5667 83.6944 85.4359 84.3154 84.3305C84.314 84.3206 84.314 84.3106 84.3154 84.3007C84.4218 84.1052 84.5281 83.9139 84.6387 83.7268C85.1406 82.8213 85.6638 81.9242 86.1998 81.0357C86.4465 80.6105 86.689 80.2109 86.9399 79.8113C86.993 79.712 87.0512 79.6155 87.1143 79.5222C87.3695 79.097 87.629 78.6719 87.8927 78.2468C89.2057 76.1494 90.5711 74.0889 91.989 72.0653L92.3505 71.5466C92.5717 71.232 92.7759 70.9259 93.0226 70.6113C93.6096 69.7908 94.2136 68.966 94.8219 68.1582C95.2473 67.5801 95.6726 67.0061 96.132 66.4577C97.2379 65.0406 98.3722 63.6234 99.5349 62.2063C100.698 60.7892 101.906 59.3905 103.159 58.0102C103.329 57.8189 103.499 57.6318 103.678 57.4448L105.494 55.4636C105.584 55.3701 105.66 55.2851 105.745 55.2C105.962 54.9662 106.171 54.7324 106.404 54.507C107.379 53.474 108.378 52.4621 109.382 51.4545C114.491 46.3688 119.933 41.6293 125.673 37.2677C125.899 37.0891 126.129 36.9191 126.354 36.749C127.434 35.937 128.532 35.1335 129.629 34.3427C135.666 30.0146 141.976 26.081 148.52 22.5664C148.97 22.3071 149.43 22.0647 149.894 21.8267C155.76 18.7245 161.794 15.9483 167.967 13.5109C171.332 12.1803 174.773 10.9304 178.235 9.78674C180.541 9.02999 182.855 8.31151 185.199 7.63554C188.862 6.58119 192.552 5.63597 196.267 4.79986C207.211 2.34548 218.345 0.829312 229.547 0.267887C232.95 0.0949976 236.391 0.00571969 239.87 5.11752e-05C256.659 -0.022164 273.383 2.09218 289.638 6.2921C289.806 6.54594 290.036 6.75289 290.306 6.89345C290.576 7.03402 290.877 7.10359 291.182 7.09561H292.611C293.232 7.26566 293.849 7.43572 294.47 7.61428C297.938 8.61194 301.356 9.70171 304.725 10.8836L305.576 11.1897C313.891 14.1448 321.981 17.6969 329.783 21.8182C336.817 25.5243 343.589 29.7061 350.052 34.3342C351.047 35.0485 352.028 35.7684 352.995 36.4939C354.169 35.7429 355.363 35.023 356.577 34.3342C361.264 31.6662 366.242 29.545 371.414 28.0124C382.225 24.8146 393.665 24.3674 404.694 26.7115C418.837 29.7087 431.641 37.1486 441.981 47.7303C446.192 52.0599 449.939 56.8159 453.164 61.9215C453.398 62.2871 453.632 62.657 453.857 63.0311C456.629 67.5498 459.011 72.2959 460.978 77.2179C461.05 77.4008 461.123 77.5708 461.186 77.7494C463.002 82.3583 464.467 87.098 465.568 91.9277C465.619 92.1743 465.678 92.4166 465.729 92.6632C466.759 97.3373 467.458 102.078 467.822 106.85C467.822 107.02 467.822 107.194 467.856 107.373C468.035 109.842 468.125 112.336 468.128 114.855C468.128 117.109 468.052 119.345 467.911 121.564C467.911 121.806 467.877 122.057 467.856 122.308C467.818 122.95 467.762 123.584 467.707 124.23C470.956 126.849 473.996 129.716 476.801 132.805C478.041 134.157 479.24 135.56 480.4 137.014C483.933 141.439 487.038 146.189 489.673 151.201C496.866 164.771 501 180.735 501 197.821Z" fill="#6783BB"/>
<path opacity="0.1" d="M452.934 300.037C452.934 302.941 442.925 305.662 425.46 308H95.1067C80.4087 308.031 65.9644 304.172 53.2426 296.815L53.0469 296.704C58.0662 294.876 67.1264 293.171 79.4577 291.632L80.0106 291.564C85.5404 290.888 91.7209 290.246 98.4756 289.638C98.6458 289.638 98.8202 289.613 98.9903 289.592C104.35 289.115 110.051 288.669 116.094 288.252C116.286 288.252 116.473 288.218 116.664 288.21C118.995 288.043 121.374 287.884 123.802 287.734L124.737 287.674C142.411 286.577 162.501 285.702 184.288 285.123H184.314C187.365 285.038 190.449 284.963 193.565 284.898C197.031 284.816 200.538 284.744 204.089 284.681C206.798 284.622 209.542 284.579 212.294 284.537H212.358C224.774 284.35 237.603 284.256 250.721 284.256C283.159 284.256 313.819 284.847 340.987 285.91H341.064C345.241 286.071 349.341 286.25 353.34 286.433L356.743 286.594C361.254 286.81 365.65 287.041 369.929 287.287C420.249 290.149 452.934 294.795 452.934 300.037Z" fill="#6783BB"/>
<g opacity="0.2">
<path opacity="0.2" d="M289.365 282.305C289.352 282.763 289.299 283.22 289.208 283.669C286.247 283.199 283.27 282.774 280.275 282.394C280.275 282.275 280.275 282.152 280.275 282.028C280.303 280.754 280.67 279.509 281.339 278.423C282.215 277.037 283.546 276.17 285.014 276.217C286.481 276.264 287.753 277.212 288.54 278.644C289.135 279.77 289.42 281.033 289.365 282.305V282.305Z" fill="#EE7168"/>
<path opacity="0.2" d="M289.61 275.04C289.714 271.752 287.761 269.022 285.249 268.943C282.736 268.864 280.615 271.465 280.511 274.752C280.408 278.04 282.36 280.77 284.872 280.849C287.385 280.929 289.506 278.328 289.61 275.04Z" fill="#EE7168"/>
<path opacity="0.2" d="M289.842 267.761C289.946 264.473 287.993 261.744 285.481 261.664C282.968 261.585 280.848 264.186 280.744 267.474C280.64 270.762 282.592 273.491 285.104 273.571C287.617 273.65 289.738 271.049 289.842 267.761Z" fill="#EE7168"/>
<path opacity="0.2" d="M290.07 260.483C290.174 257.195 288.221 254.465 285.709 254.386C283.196 254.306 281.075 256.907 280.971 260.195C280.867 263.483 282.82 266.213 285.332 266.292C287.845 266.372 289.966 263.771 290.07 260.483Z" fill="#EE7168"/>
<path opacity="0.2" d="M290.297 253.204C290.401 249.916 288.449 247.187 285.937 247.107C283.424 247.028 281.303 249.629 281.199 252.917C281.095 256.205 283.048 258.934 285.56 259.014C288.072 259.093 290.193 256.492 290.297 253.204Z" fill="#EE7168"/>
<path opacity="0.2" d="M270.267 202.702C269.668 201.891 269.127 201.039 268.65 200.151L280.671 198.565L267.731 198.255C266.577 195.517 265.993 192.573 266.015 189.602C266.038 186.632 266.667 183.697 267.863 180.977L284.929 190.522L269.297 178.261C270.874 175.711 272.96 173.515 275.424 171.807C277.889 170.1 280.679 168.919 283.621 168.338C286.563 167.757 289.593 167.788 292.522 168.43C295.451 169.072 298.216 170.311 300.645 172.069C303.073 173.827 305.113 176.067 306.637 178.648C308.16 181.23 309.135 184.097 309.5 187.072C309.865 190.047 309.612 193.065 308.758 195.938C307.903 198.811 306.465 201.476 304.534 203.769C305.465 205.03 306.257 206.388 306.895 207.82L291.118 215.388L307.847 210.359C308.901 213.833 309.071 217.515 308.341 221.072C307.612 224.628 306.006 227.947 303.67 230.727C306.099 234.021 307.552 237.931 307.862 242.011C308.172 246.091 307.326 250.176 305.423 253.798C303.52 257.42 300.635 260.434 297.098 262.495C293.561 264.556 289.516 265.581 285.424 265.452C281.332 265.323 277.36 264.046 273.96 261.766C270.56 259.487 267.871 256.297 266.2 252.562C264.528 248.827 263.942 244.697 264.509 240.645C265.075 236.592 266.771 232.781 269.403 229.647C266.501 225.711 265.008 220.914 265.162 216.027C265.316 211.14 267.109 206.447 270.254 202.702H270.267Z" fill="#6783BB"/>
<path opacity="0.1" d="M308.775 217.403C308.626 222.293 306.827 226.988 303.67 230.727C306.099 234.021 307.552 237.931 307.862 242.011C308.172 246.091 307.326 250.176 305.423 253.798C303.52 257.42 300.635 260.434 297.098 262.495C293.561 264.556 289.516 265.581 285.424 265.452C281.332 265.323 277.36 264.046 273.96 261.766C270.56 259.487 267.871 256.297 266.2 252.562C264.528 248.827 263.942 244.697 264.509 240.645C265.075 236.592 266.771 232.781 269.403 229.647C266.608 225.851 308.851 214.958 308.775 217.403Z" fill="black"/>
</g>
<g opacity="0.2">
<path opacity="0.2" d="M224.71 282.305C224.697 282.763 224.644 283.22 224.553 283.669C221.592 283.199 218.615 282.774 215.62 282.394C215.62 282.275 215.62 282.152 215.62 282.028C215.648 280.754 216.015 279.509 216.684 278.423C217.56 277.037 218.891 276.17 220.359 276.217C221.826 276.264 223.098 277.212 223.885 278.644C224.48 279.77 224.765 281.033 224.71 282.305V282.305Z" fill="#EE7168"/>
<path opacity="0.2" d="M224.95 275.042C225.054 271.754 223.102 269.024 220.589 268.945C218.077 268.865 215.956 271.466 215.852 274.754C215.748 278.042 217.7 280.772 220.213 280.851C222.725 280.931 224.846 278.33 224.95 275.042Z" fill="#EE7168"/>
<path opacity="0.2" d="M225.182 267.763C225.286 264.475 223.334 261.745 220.821 261.666C218.309 261.587 216.188 264.188 216.084 267.476C215.98 270.763 217.932 273.493 220.445 273.573C222.957 273.652 225.078 271.051 225.182 267.763Z" fill="#EE7168"/>
<path opacity="0.2" d="M225.41 260.485C225.514 257.197 223.561 254.467 221.049 254.388C218.537 254.308 216.416 256.909 216.312 260.197C216.208 263.485 218.16 266.215 220.673 266.294C223.185 266.373 225.306 263.772 225.41 260.485Z" fill="#EE7168"/>
<path opacity="0.2" d="M225.638 253.206C225.742 249.918 223.789 247.188 221.277 247.109C218.764 247.03 216.643 249.631 216.539 252.919C216.436 256.206 218.388 258.936 220.9 259.016C223.413 259.095 225.534 256.494 225.638 253.206Z" fill="#EE7168"/>
<path opacity="0.2" d="M205.612 202.702C205.013 201.891 204.472 201.039 203.995 200.151L216.016 198.565L203.076 198.255C201.922 195.517 201.338 192.573 201.36 189.602C201.383 186.632 202.012 183.697 203.208 180.977L220.274 190.522L204.642 178.261C206.219 175.711 208.305 173.515 210.769 171.807C213.234 170.1 216.024 168.919 218.966 168.338C221.908 167.757 224.938 167.788 227.867 168.43C230.796 169.072 233.561 170.311 235.99 172.069C238.418 173.827 240.458 176.067 241.982 178.648C243.505 181.23 244.48 184.097 244.845 187.072C245.21 190.047 244.957 193.065 244.103 195.938C243.248 198.811 241.81 201.476 239.879 203.769C240.81 205.03 241.602 206.388 242.239 207.82L226.463 215.388L243.192 210.359C244.246 213.833 244.416 217.515 243.686 221.072C242.957 224.628 241.351 227.947 239.015 230.727C241.444 234.021 242.897 237.931 243.207 242.011C243.517 246.091 242.671 250.176 240.768 253.798C238.865 257.42 235.98 260.434 232.443 262.495C228.906 264.556 224.861 265.581 220.769 265.452C216.677 265.323 212.705 264.046 209.305 261.766C205.905 259.487 203.216 256.297 201.545 252.562C199.873 248.827 199.287 244.697 199.854 240.645C200.42 236.592 202.116 232.781 204.748 229.647C201.846 225.711 200.353 220.914 200.507 216.027C200.661 211.14 202.454 206.447 205.599 202.702H205.612Z" fill="#6783BB"/>
<path opacity="0.1" d="M244.12 217.403C243.971 222.293 242.172 226.988 239.015 230.727C241.444 234.021 242.897 237.931 243.207 242.011C243.516 246.091 242.671 250.176 240.768 253.798C238.865 257.42 235.98 260.434 232.443 262.495C228.906 264.556 224.861 265.581 220.769 265.452C216.677 265.323 212.705 264.046 209.305 261.766C205.905 259.487 203.216 256.297 201.545 252.562C199.873 248.827 199.287 244.697 199.854 240.645C200.42 236.592 202.116 232.781 204.748 229.647C201.953 225.851 244.196 214.958 244.12 217.403Z" fill="black"/>
</g>
<g opacity="0.2">
<path opacity="0.2" d="M401.321 286.956C401.288 287.824 401.184 288.689 401.01 289.541C395.31 288.631 389.569 287.817 383.787 287.1C383.787 286.871 383.787 286.637 383.787 286.399C383.841 283.944 384.549 281.547 385.837 279.456C387.539 276.791 390.091 275.12 392.911 275.205C395.731 275.29 398.186 277.122 399.717 279.881C400.872 282.055 401.425 284.497 401.321 286.956V286.956Z" fill="#EE7168"/>
<path opacity="0.2" d="M401.783 272.959C401.984 266.627 398.223 261.37 393.384 261.217C388.544 261.065 384.459 266.073 384.259 272.405C384.059 278.737 387.819 283.994 392.659 284.146C397.498 284.299 401.583 279.29 401.783 272.959Z" fill="#EE7168"/>
<path opacity="0.2" d="M402.226 258.946C402.426 252.614 398.665 247.357 393.826 247.205C388.986 247.052 384.901 252.061 384.701 258.392C384.501 264.724 388.261 269.981 393.101 270.134C397.94 270.286 402.025 265.277 402.226 258.946Z" fill="#EE7168"/>
<path opacity="0.2" d="M402.672 244.933C402.872 238.602 399.111 233.345 394.272 233.192C389.433 233.039 385.347 238.048 385.147 244.38C384.947 250.711 388.708 255.968 393.547 256.121C398.386 256.274 402.472 251.265 402.672 244.933Z" fill="#EE7168"/>
<path opacity="0.2" d="M402.615 230.283C402.805 223.948 399.035 218.695 394.193 218.55C389.351 218.405 385.272 223.422 385.082 229.757C384.892 236.092 388.663 241.345 393.504 241.49C398.346 241.635 402.425 236.618 402.615 230.283Z" fill="#EE7168"/>
<path opacity="0.2" d="M364.548 133.71C363.4 132.15 362.361 130.512 361.439 128.808L384.578 125.756L359.673 125.156C357.449 119.887 356.323 114.219 356.366 108.5C356.408 102.78 357.618 97.1298 359.92 91.8937L392.779 110.264L362.689 86.6602C365.732 81.7643 369.75 77.5472 374.495 74.2716C379.24 70.9961 384.608 68.7324 390.267 67.6215C395.925 66.5106 401.752 66.5764 407.383 67.8148C413.015 69.0531 418.331 71.4376 423 74.8194C427.67 78.2013 431.592 82.5081 434.523 87.4714C437.454 92.4348 439.331 97.9483 440.037 103.668C440.742 109.388 440.262 115.192 438.625 120.719C436.988 126.245 434.229 131.375 430.522 135.789C432.314 138.219 433.838 140.834 435.069 143.591L404.694 158.168L436.898 148.475C438.927 155.156 439.258 162.237 437.859 169.078C436.461 175.918 433.377 182.302 428.888 187.652C433.563 193.993 436.359 201.521 436.955 209.375C437.551 217.229 435.924 225.092 432.259 232.065C428.595 239.038 423.041 244.84 416.233 248.807C409.425 252.774 401.637 254.746 393.76 254.498C385.883 254.25 378.235 251.791 371.691 247.403C365.146 243.016 359.969 236.876 356.751 229.686C353.534 222.495 352.405 214.545 353.495 206.745C354.585 198.944 357.849 191.607 362.915 185.573C357.331 177.995 354.457 168.763 354.753 159.357C355.05 149.951 358.499 140.918 364.548 133.706V133.71Z" fill="#6783BB"/>
<path opacity="0.1" d="M438.689 162.007C438.41 171.415 434.963 180.454 428.905 187.66C433.58 194.001 436.376 201.529 436.972 209.383C437.568 217.237 435.941 225.1 432.276 232.073C428.612 239.047 423.058 244.848 416.25 248.815C409.442 252.782 401.654 254.755 393.777 254.506C385.9 254.258 378.252 251.8 371.708 247.412C365.163 243.024 359.986 236.884 356.768 229.694C353.551 222.504 352.422 214.554 353.512 206.753C354.602 198.952 357.866 191.615 362.932 185.581C357.513 178.265 438.838 157.301 438.689 162.007Z" fill="black"/>
</g>
<path d="M67.1307 287.704L71.5927 287.691H77.8838L85.8381 158.543L164.611 27.1621L161.187 23.4889V14.1869L75.9952 155.499L67.1307 287.704Z" fill="#F1C0C0"/>
<path opacity="0.1" d="M72.0691 287.691H77.8838L85.8381 158.543L164.611 27.1621L161.187 23.4889L79.934 156.574L72.0691 287.691Z" fill="black"/>
<path d="M53.9827 288.779L258.093 304.391L258.267 304.403L455.801 292.261L455.95 292.253V283.916L238.292 279.924L56.7008 279.75H55.3737L55.229 280.685L53.9827 288.779Z" fill="#F1C0C0"/>
<path opacity="0.1" d="M53.9827 288.779L258.093 304.391L258.267 304.403L455.801 292.261L455.95 292.1V284.09H455.775L258.093 290.688L56.7008 279.75H56.671L56.3137 279.983L55.229 280.685L53.9827 288.779Z" fill="black"/>
<path opacity="0.1" d="M53.9827 288.78L258.093 304.391V290.688L56.3137 279.983L55.229 280.685L53.9827 288.78Z" fill="black"/>
<path d="M161.161 23.3146L251.147 119.847L248.365 289.647L256.008 290.569L256.136 290.586H263.78L264.694 127.138L433.193 183.392L436.034 283.555L442.185 284.243L444.269 284.477L439.446 176.445L263.303 114.639L166.721 14.2847H161.161V23.3146Z" fill="#F1C0C0"/>
<path opacity="0.1" d="M264.001 124.013L264.694 127.138L433.193 183.392L436.035 283.555L442.185 284.243L437.362 181.309L264.001 124.013Z" fill="black"/>
<path opacity="0.1" d="M161.161 23.3146L251.147 119.847L248.365 289.647L256.008 290.569L258.093 114.29L161.161 14.2847V23.3146Z" fill="black"/>
<path d="M264.329 192.158L326.129 204.321L326.151 204.326L434.393 225.638L439.348 223.652L439.331 223.304L439.008 216.395L264.392 181.13L264.329 192.158Z" fill="#F1C0C0"/>
<path opacity="0.1" d="M326.151 204.326L434.393 225.638L439.348 223.652L439.331 223.304L326.151 204.326Z" fill="black"/>
<path d="M330.289 149.036L331.961 241.011L332.825 288.197L340.434 287.942L345.224 287.78L343.735 150.367L340.434 149.27L339.711 149.036H330.289Z" fill="#F1C0C0"/>
<path opacity="0.1" d="M330.358 149.015V149.037L331.961 241.011L332.825 288.197L340.434 287.942V149.015H330.358Z" fill="black"/>
<path d="M211.09 172.525C211.537 172.768 211.963 173.045 212.366 173.354C212.843 173.771 213.271 174.241 213.642 174.753C215.467 177.113 217.152 179.855 216.973 182.831C216.977 183.264 216.895 183.693 216.732 184.094C216.569 184.496 216.329 184.861 216.024 185.169C215.272 185.811 214.191 185.841 213.204 185.841C212.132 185.841 211.005 185.841 210.078 185.288C209.151 184.735 208.376 183.66 207.279 183.685C207.124 183.711 206.966 183.711 206.811 183.685C206.433 183.562 206.356 183.065 206.109 182.75C205.684 182.185 204.786 182.325 204.119 182.571C203.451 182.818 202.711 183.188 202.051 182.903C201.669 182.701 201.356 182.389 201.154 182.006C199.576 179.455 199.24 176.39 198.942 173.427C198.759 171.624 197.364 165.477 201.213 166.875C202.915 167.487 204.506 168.712 206.054 169.609L211.09 172.525Z" fill="#EE7168"/>
<path d="M207.287 173.133C207.631 173.381 208.048 173.506 208.471 173.489C208.894 173.472 209.3 173.314 209.623 173.04C210.256 172.468 210.66 171.685 210.758 170.838C211.184 170.706 211.401 171.263 211.673 171.603C212.149 172.181 213.119 172.173 213.553 172.789C213.855 173.214 213.787 173.805 214 174.286C214.276 174.906 214.961 175.229 215.429 175.731C215.871 176.279 216.19 176.916 216.365 177.597L217.062 179.689C217.396 180.559 217.611 181.47 217.7 182.397C217.744 182.861 217.696 183.328 217.557 183.773C217.418 184.217 217.192 184.63 216.892 184.986C215.956 185.994 214.421 186.1 213.064 186.07C212.611 186.08 212.158 186.027 211.72 185.913C210.516 185.539 209.746 184.327 209.427 183.107C209.108 181.887 209.142 180.607 208.955 179.357C208.753 178.13 208.395 176.933 207.891 175.795C207.517 174.91 206.488 173.593 206.505 172.653C206.811 172.653 207.032 172.934 207.287 173.133Z" fill="#EE7168"/>
<path d="M208.815 168.827C208.616 168.223 208.5 167.595 208.47 166.96C208.47 165.685 209.053 164.486 209.64 163.347L204.778 164.006C204.191 164.086 203.536 164.205 203.204 164.694C203.078 164.937 203.012 165.206 203.012 165.479C203.012 165.752 203.078 166.021 203.204 166.263C203.448 166.748 203.642 167.257 203.783 167.781C203.794 168.24 203.846 168.696 203.94 169.146C204.091 169.476 204.303 169.774 204.565 170.026C205.956 171.565 206.998 173.38 208.036 175.178C208.006 175.127 210.967 172.836 210.848 172.088C210.78 171.662 209.925 171.152 209.653 170.744C209.276 170.152 208.994 169.505 208.815 168.827V168.827Z" fill="#BE6F72"/>
<path d="M250.5 152.217V156.404L178.754 170.391L175.032 172.644H162.191V170.285L232.682 153.262L250.5 152.217Z" fill="#F1C0C0"/>
<path opacity="0.1" d="M250.5 156.404L178.754 170.391L175.032 172.644H162.191L233.205 157.454L250.5 156.404Z" fill="black"/>
<path d="M192.897 271.094C192.098 270.126 190.995 269.457 189.767 269.197C188.539 268.936 187.258 269.098 186.134 269.657C185.894 269.77 185.681 269.936 185.513 270.141C185.088 270.737 185.36 271.557 185.398 272.293C185.496 274.087 184.067 275.545 182.782 276.799C182.093 277.471 181.391 278.189 181.081 279.103C180.77 280.017 181 281.178 181.834 281.654C182.198 281.836 182.594 281.946 182.999 281.977C184.359 282.242 185.753 282.281 187.125 282.092C188.482 281.833 189.814 281.063 190.401 279.813C190.514 279.474 190.701 279.165 190.949 278.908C191.698 278.317 192.846 279.01 193.697 278.589C194.399 278.24 194.429 277.692 194.437 276.969C194.463 274.971 194.165 272.709 192.897 271.094Z" fill="#6783BB"/>
<path d="M203.106 271.017C203.629 272.395 203.702 273.895 203.77 275.366C203.808 276.217 203.834 277.127 203.374 277.845C202.915 278.563 202.017 278.942 201.158 279.12C199.384 279.486 197.33 279.142 196.185 277.734C195.309 276.659 195.126 275.184 195.288 273.789C195.424 272.646 195.713 271.306 194.892 270.494C194.68 270.278 194.403 270.125 194.208 269.891C193.782 269.372 193.85 268.59 194.08 267.952C194.379 267.342 194.603 266.698 194.748 266.035C194.782 265.72 200.507 266.256 201.035 266.515C201.754 266.868 201.643 267.459 201.86 268.173C202.162 269.168 202.74 270.065 203.106 271.017Z" fill="#6783BB"/>
<path d="M204.157 209.942C205.28 210.669 205.714 212.097 205.888 213.424C206.369 217.059 205.526 220.732 205.463 224.401C205.403 229.541 206.892 234.774 205.62 239.753C204.859 242.729 205.505 246.13 204.791 249.135C204.578 250.028 204.187 250.87 203.982 251.763C203.557 253.697 204.004 255.721 204.603 257.613C204.795 258.123 204.917 258.656 204.965 259.198C204.936 260.033 204.724 260.852 204.344 261.596L201.792 267.629C201.507 268.305 200.384 268.415 199.665 268.505C198.312 268.666 196.802 268.781 195.726 267.943C194.65 267.106 194.39 265.703 194.225 264.394C193.906 261.88 193.764 259.347 193.799 256.813C193.846 256.152 193.787 255.488 193.625 254.845C193.391 254.118 192.876 253.489 192.736 252.719C192.557 251.724 193.063 250.747 193.25 249.743C193.379 248.827 193.364 247.896 193.208 246.984C193.042 245.624 192.851 244.263 192.634 242.911C192.327 241.019 192.766 239.153 193.059 237.257C193.336 235.476 192.983 233.66 192.634 231.892C192.664 233.327 192.485 234.759 192.102 236.143C191.877 236.819 191.553 237.465 191.358 238.154C190.486 241.245 192.344 244.489 192.081 247.69C191.957 249.186 191.37 250.666 191.536 252.141C191.651 253.221 192.153 254.212 192.498 255.24C192.842 256.269 193.021 257.447 192.498 258.408C191.115 261.018 192.149 264.568 193.387 267.246C193.638 267.721 193.857 268.213 194.042 268.717C194.407 269.925 194.101 271.221 194.199 272.48C193.843 272.538 193.478 272.514 193.132 272.41C192.787 272.307 192.469 272.125 192.204 271.88C192.017 271.685 191.864 271.455 191.681 271.251C191.17 270.764 190.565 270.387 189.903 270.141C189.514 269.924 189.071 269.822 188.627 269.848C188.159 269.979 187.739 270.24 187.415 270.601C186.994 270.97 186.547 271.31 186.079 271.617C185.879 271.77 185.646 271.873 185.398 271.919C185.274 271.938 185.146 271.917 185.034 271.86C184.922 271.803 184.831 271.712 184.773 271.6C184.746 271.529 184.731 271.454 184.726 271.379C184.568 270.095 184.484 268.803 184.475 267.51C184.475 265.286 181.813 263.756 181.476 261.558C181.208 259.785 181.706 257.978 181.54 256.193C181.459 255.274 181.204 254.373 181.221 253.455C181.221 252.86 181.357 252.277 181.404 251.686C181.443 251.03 181.433 250.372 181.374 249.718L181.243 247.664C181.115 245.636 180.975 243.566 180.175 241.712C179.227 239.548 178.665 237.234 178.516 234.876C178.431 233.388 178.486 231.9 178.316 230.408C178.163 229.06 177.823 227.721 177.92 226.369C178.001 225.323 178.346 224.312 178.427 223.266C178.593 221.255 177.827 219.299 177.227 217.373C176.627 215.447 176.185 213.313 176.972 211.455C177.084 211.15 177.272 210.879 177.516 210.665C177.818 210.465 178.161 210.337 178.52 210.29C185.818 208.758 193.299 208.281 200.733 208.875C201.944 208.943 203.121 209.31 204.157 209.942Z" fill="#EE7168"/>
<path d="M180.009 164.788C183.772 164.788 186.823 161.739 186.823 157.977C186.823 154.216 183.772 151.167 180.009 151.167C176.246 151.167 173.195 154.216 173.195 157.977C173.195 161.739 176.246 164.788 180.009 164.788Z" fill="#BE6F72"/>
<path d="M178.69 166.484C178.788 166.874 178.788 167.281 178.69 167.67C178.583 167.942 178.432 168.195 178.244 168.419C177.584 169.269 176.854 170.063 176.062 170.791C176.465 171.692 177.192 172.41 178.099 172.802C178.999 173.185 179.944 173.455 180.911 173.605C181.393 173.732 181.896 173.767 182.391 173.707C182.848 173.593 183.28 173.397 183.667 173.129L187.453 170.863C188.024 170.554 188.553 170.172 189.027 169.728C189.721 169.015 190.114 168.062 190.124 167.067C190.142 166.888 190.093 166.71 189.988 166.565C189.843 166.439 189.661 166.363 189.469 166.348C188.138 166.055 187.087 164.975 186.492 163.751C185.953 162.495 185.605 161.167 185.458 159.81L181.421 161.935C180.821 162.254 180.226 162.573 179.605 162.849C179.209 163.028 178.41 163.177 178.129 163.538C177.593 164.205 178.55 165.681 178.69 166.484Z" fill="#BE6F72"/>
<path d="M176.087 169.554C175.512 170.025 175.064 170.631 174.781 171.318C174.518 172.168 174.781 173.065 175.02 173.907C176.136 177.495 176.989 181.159 177.572 184.871C177.929 187.422 178.061 190.011 178.235 192.592C178.593 197.855 179.112 206.247 179.805 211.477C182.357 211.591 184.845 210.847 187.376 210.575C192.106 210.074 196.977 211.222 201.609 210.15C200.486 205.716 199.363 198.144 198.24 193.714C197.743 191.969 197.399 190.184 197.211 188.379C197.113 187.082 197.172 185.781 197.189 184.476C197.228 181.925 197.087 179.374 196.947 176.824C196.785 173.848 196.624 170.872 195.918 167.959C195.868 167.588 195.694 167.245 195.424 166.986C194.999 166.676 194.446 166.786 193.94 166.854C192.39 167.051 190.821 166.679 189.524 165.808C188.963 165.426 188.21 164.958 187.687 165.383C187.464 165.64 187.316 165.953 187.261 166.289C187.03 166.89 186.673 167.435 186.213 167.888C185.754 168.34 185.204 168.689 184.599 168.912C183.387 169.35 182.117 169.611 180.83 169.685C180.436 169.77 180.025 169.724 179.66 169.554C179.056 169.184 179.014 167.853 178.252 167.764C177.584 167.687 176.538 169.124 176.087 169.554Z" fill="#EE7168"/>
<path d="M186.151 179.936C184.582 178.435 183.893 176.258 182.748 174.409C181.969 173.165 180.974 172.071 179.809 171.178C179.224 170.791 178.687 170.336 178.21 169.821C177.806 169.324 177.499 168.661 176.887 168.47C176.634 168.415 176.371 168.422 176.121 168.491C175.872 168.559 175.642 168.688 175.453 168.865C175.078 169.222 174.723 169.6 174.39 169.996C172.586 171.862 169.417 172.121 167.988 174.281C167.603 174.739 167.341 175.288 167.227 175.875C166.815 179.019 167.629 182.2 169.498 184.761C169.86 185.354 170.416 185.805 171.072 186.036C170.983 186.829 171.088 187.631 171.378 188.375C172.166 191.065 173.134 193.7 174.275 196.261C174.002 197.263 173.812 198.285 173.705 199.318C173.407 201.915 173.684 204.551 173.403 207.153C173.173 209.279 172.552 211.349 172.531 213.479C172.531 213.819 172.561 214.223 172.854 214.397C173.011 214.477 173.185 214.514 173.361 214.504L178.593 214.661C181.63 214.75 184.696 214.839 187.687 214.278C188.085 214.219 188.471 214.097 188.831 213.917C189.843 213.351 190.179 212.076 190.341 210.941C190.552 209.468 190.636 207.981 190.592 206.494C191.226 208.496 191.979 210.567 193.893 211.434C194.905 211.893 196.062 211.859 197.172 211.829C199.565 211.723 201.95 211.477 204.314 211.094C204.46 211.112 204.608 211.096 204.746 211.046C204.884 210.997 205.009 210.916 205.11 210.81C205.212 210.704 205.287 210.575 205.329 210.435C205.372 210.294 205.381 210.146 205.356 210.001L205.382 207.68C205.433 202.965 204.263 198.459 203.808 193.765C203.663 192.286 203.676 190.789 203.315 189.34C203.166 188.732 202.949 188.136 202.817 187.524C202.703 186.925 202.632 186.318 202.604 185.709L202.272 181.032C202.115 178.868 201.89 176.781 201.724 174.621C201.633 172.518 201.328 170.43 200.813 168.389C200.443 167.113 199.673 165.668 198.342 165.511C197.632 165.43 196.943 165.74 196.266 165.957C194.604 166.48 192.82 166.473 191.162 165.936C190.65 165.734 190.116 165.591 189.571 165.511C189.297 165.473 189.018 165.51 188.762 165.616C188.506 165.722 188.284 165.894 188.116 166.114C187.951 166.446 187.874 166.815 187.891 167.186C187.691 171.433 187.321 175.807 186.151 179.936Z" fill="#6783BB"/>
<path d="M179.307 180.063C177.346 177.997 175.334 175.893 172.808 174.579C171.812 174.06 170.681 173.669 169.579 173.865C168.477 174.06 167.452 175.017 167.503 176.135C167.537 176.828 167.958 177.44 168.09 178.12C168.243 178.886 168.022 179.702 168.26 180.442C168.454 180.929 168.743 181.373 169.111 181.747L172.123 185.314C173.399 186.802 174.675 188.311 176.317 189.34C177.959 190.369 180.086 190.849 181.889 190.118C183.172 189.522 184.239 188.543 184.943 187.316C185.692 186.126 186.219 184.825 186.921 183.596C188.013 181.633 189.455 179.885 191.175 178.439C190.29 178.21 189.18 177.886 188.623 177.164C188.464 176.934 188.329 176.689 188.218 176.432L187.529 174.944C187.295 174.932 187.061 174.969 186.841 175.051C186.622 175.134 186.421 175.261 186.253 175.425C185.958 175.766 185.641 176.089 185.305 176.39C184.705 176.841 183.893 176.964 183.348 177.478C183.137 177.699 182.947 177.938 182.778 178.193C182.366 178.734 181.844 179.18 181.245 179.503C180.646 179.825 179.986 180.017 179.307 180.063V180.063Z" fill="#EE7168"/>
<path d="M191.332 171.174C192.808 168.482 192.74 165.256 193.161 162.216C193.207 161.411 193.489 160.637 193.974 159.992C194.824 159.032 196.326 159.019 197.61 159.142C197.989 159.185 198.461 159.363 198.44 159.742C198.41 159.877 198.344 160.002 198.249 160.103C197.003 161.709 196.271 163.653 196.147 165.681C196.815 166.144 197.849 165.192 198.491 165.681C198.916 166.038 198.721 166.744 198.465 167.254C197.873 168.436 197.262 169.609 196.632 170.774C196.13 171.801 195.474 172.745 194.688 173.576C194.148 174.094 193.514 174.502 192.966 175.013C191.689 176.207 190.92 177.895 189.601 179.06C189.49 179.18 189.339 179.257 189.176 179.277C189.008 179.265 188.85 179.194 188.729 179.077C188.07 178.541 187.524 177.881 187.121 177.134C186.619 176.207 186.696 175.935 187.487 175.28C188.967 174.111 190.409 172.857 191.332 171.174Z" fill="#BE6F72"/>
<path d="M176.84 178.235C177.095 178.392 177.41 178.571 177.691 178.439C177.805 178.37 177.903 178.275 177.976 178.163C178.462 177.514 178.868 176.809 179.184 176.063C179.238 175.957 179.269 175.841 179.273 175.723C179.273 175.45 179.031 175.251 178.805 175.093C177.597 174.324 176.298 173.707 174.939 173.257C173.816 172.832 172.642 172.462 171.451 172.568C171.003 172.598 170.566 172.718 170.167 172.921C169.767 173.124 169.412 173.406 169.124 173.75C168.273 174.842 169.698 175.174 170.592 175.569C172.659 176.509 174.896 177.053 176.84 178.235Z" fill="#6783BB"/>
<path opacity="0.1" d="M175.5 185.462C175.486 185.559 175.494 185.659 175.526 185.752C175.557 185.845 175.609 185.929 175.679 185.998C175.802 185.394 175.641 184.757 175.768 184.149C175.955 183.235 176.844 182.546 176.921 181.628C175.292 181.309 175.513 184.476 175.5 185.462Z" fill="black"/>
<path opacity="0.2" d="M250.5 152.217V156.404L233.205 157.454L232.682 153.262L250.5 152.217Z" fill="black"/>
<path d="M173.875 158.989C174.956 158.109 174.33 156.264 175.062 155.082C175.487 154.436 176.206 154.096 176.912 153.807C177.765 153.408 178.678 153.155 179.613 153.058C180.082 153.013 180.555 153.074 180.997 153.237C181.439 153.4 181.838 153.66 182.166 153.998C182.442 154.312 182.629 154.695 182.889 155.022C183.21 155.404 183.629 155.692 184.101 155.855C184.572 156.019 185.08 156.051 185.568 155.949C186.134 155.822 186.721 155.392 186.683 154.814C186.619 154.462 186.439 154.142 186.173 153.904L184.956 152.557C183.574 151.026 182.038 149.402 180.009 149.019C178.597 148.752 177.151 149.13 175.789 149.585C175.241 149.768 174.624 150.04 174.471 150.597C174.369 150.979 174.522 151.396 174.433 151.783C174.258 152.552 173.271 152.812 172.812 153.458C172.352 154.104 172.493 154.869 172.361 155.584C172.229 156.298 171.846 156.995 171.8 157.735C171.77 158.181 171.995 159.01 172.497 159.172C172.999 159.333 173.565 158.458 173.875 158.989Z" fill="#EE7168"/>
<path d="M186.27 154.202C185.912 152.331 185.138 150.565 184.007 149.032C183.002 147.6 181.603 146.49 179.979 145.835C179.168 145.518 178.295 145.389 177.426 145.458C176.558 145.526 175.716 145.79 174.964 146.231C173.848 147.027 172.98 148.122 172.459 149.389C171.357 151.762 170.949 154.661 172.229 156.94C172.74 156.319 173.616 156.6 174.39 156.374C175.36 156.098 176.181 155.452 177.104 155.048C179.89 153.819 183.293 154.814 186.27 154.202Z" fill="#FED253"/>
<path opacity="0.1" d="M172.88 154.07C172.782 153.305 172.718 152.416 173.263 151.872C173.29 151.839 173.324 151.812 173.363 151.795C173.403 151.777 173.445 151.769 173.488 151.77C173.526 151.783 173.561 151.802 173.591 151.829C173.621 151.855 173.645 151.887 173.663 151.923C173.977 152.419 174.245 152.943 174.462 153.488C174.145 153.415 173.814 153.439 173.51 153.556C173.207 153.673 172.946 153.879 172.761 154.147" fill="black"/>
<path opacity="0.1" d="M182.821 151.91L182.668 150.393C182.643 150.268 182.653 150.138 182.697 150.019C182.761 149.918 182.86 149.846 182.975 149.814C183.09 149.783 183.212 149.795 183.318 149.848C183.528 149.964 183.7 150.137 183.816 150.346C184.17 150.889 184.464 151.469 184.692 152.076C184.007 151.944 183.302 151.953 182.621 152.102" fill="black"/>
<path opacity="0.1" d="M186.628 213.509V216.978L183.697 217.173H168.282V213.509H186.628Z" fill="black"/>
<path d="M186.628 213.509V217.173H168.282L119.544 156.153V153.271H129.761L186.628 213.509Z" fill="#F1C0C0"/>
<path opacity="0.1" d="M186.628 213.509V217.173H168.282L119.544 156.153V153.271H129.761L186.628 213.509Z" fill="black"/>
<path opacity="0.1" d="M186.628 213.509V217.173H168.282L119.544 156.153V153.271L168.545 213.509H186.628Z" fill="black"/>
<path d="M125.933 274.669C125.965 274.842 125.961 275.019 125.921 275.19C125.882 275.361 125.807 275.521 125.703 275.662C125.598 275.803 125.466 275.921 125.313 276.008C125.161 276.096 124.993 276.151 124.818 276.17C123.636 276.569 122.381 276.965 121.543 277.87C120.705 278.776 120.539 280.455 121.543 281.191C122.056 281.5 122.645 281.66 123.244 281.654C125.171 281.786 127.179 281.76 128.927 280.944C130.178 280.366 131.356 279.38 132.73 279.469C133.44 279.511 134.197 279.843 134.831 279.52C135.465 279.197 135.644 278.296 135.648 277.543C135.664 275.972 135.427 274.409 134.946 272.913C134.882 272.709 132.177 272.552 131.854 272.488L128.574 272.063C127.953 271.982 126.613 271.515 126.124 272.033C125.635 272.552 125.933 274.053 125.933 274.669Z" fill="#6783BB"/>
<path d="M145.504 264.058C145.642 264.823 145.868 265.571 146.176 266.285C146.631 267.442 147.214 268.67 148.328 269.232C149.34 269.738 150.582 269.555 151.612 269.074C152.041 268.896 152.418 268.611 152.705 268.245C153.037 267.667 153.185 267.001 153.13 266.336C153.13 264.691 153.033 262.991 152.28 261.528C151.633 260.253 150.506 259.156 150.489 257.744L146.614 258.493C146.406 258.513 146.209 258.591 146.044 258.718C145.921 258.847 145.836 259.007 145.797 259.181C145.383 260.772 145.284 262.429 145.504 264.058V264.058Z" fill="#6783BB"/>
<path d="M99.2285 223.67C99.0668 225.039 99.1349 226.505 99.8495 227.687C100.564 228.869 102.07 229.651 103.372 229.179C103.438 229.162 103.501 229.132 103.556 229.091C103.61 229.049 103.656 228.997 103.691 228.937C103.725 228.793 103.705 228.642 103.635 228.512C103.061 226.979 103.108 225.283 103.767 223.784C103.852 223.589 104.035 223.359 104.235 223.436C104.319 223.478 104.386 223.547 104.426 223.631C104.632 223.987 104.735 224.394 104.724 224.805C104.664 225.177 104.653 225.556 104.69 225.931C104.771 226.297 105.162 226.641 105.503 226.484C105.601 226.424 105.686 226.344 105.753 226.25C105.819 226.155 105.866 226.048 105.89 225.936C106.838 223.193 106.409 220.196 105.975 217.327C105.978 217.261 105.967 217.195 105.943 217.134C105.918 217.072 105.88 217.017 105.832 216.972C105.784 216.927 105.726 216.893 105.663 216.873C105.601 216.853 105.534 216.846 105.469 216.855C103.461 216.655 102.363 216.174 101.215 218.041C100.228 219.614 99.2285 221.778 99.2285 223.67Z" fill="#6783BB"/>
<path d="M122.7 216.693C122.104 219.167 121.505 221.671 121.466 224.214C121.477 225.797 121.596 227.378 121.824 228.945L122.27 232.627C122.424 233.869 122.572 235.106 122.789 236.334C122.928 236.967 123.003 237.612 123.015 238.26C122.973 238.899 122.872 239.532 122.713 240.152C122.445 241.454 122.296 242.777 122.266 244.106C122.219 246.232 122.483 248.357 122.649 250.483C122.98 254.719 122.93 258.976 122.5 263.203C122.328 264.344 122.576 265.509 123.198 266.481C123.45 266.788 123.658 267.128 123.814 267.493C124.133 268.466 123.389 269.44 123.198 270.439C123.075 271.218 123.267 272.014 123.731 272.651C124.196 273.289 124.894 273.717 125.673 273.84C129.076 274.244 132.573 274.061 135.639 275.617C135.963 274.673 135.257 273.602 135.58 272.641C135.784 272.046 136.346 271.659 136.728 271.157C137.243 270.393 137.499 269.484 137.46 268.564C137.475 267.363 137.261 266.17 136.831 265.048C136.469 264.113 135.95 263.19 135.98 262.187C135.98 261.694 136.154 261.175 135.954 260.72C135.817 260.459 135.631 260.227 135.406 260.036C134.134 258.644 133.353 256.875 133.181 254.998C133.015 253.135 133.075 251.26 133.36 249.412C133.568 247.652 133.849 245.794 134.967 244.42C134.449 240.257 134.754 236.032 135.865 231.985C135.976 231.611 136.15 231.177 136.533 231.088C136.685 231.073 136.838 231.094 136.981 231.15C137.123 231.206 137.249 231.296 137.349 231.411C138.017 232.036 138.336 232.942 138.626 233.809C138.945 234.749 139.268 235.752 139.025 236.713C138.923 237.138 138.719 237.512 138.6 237.92C138.341 238.74 138.387 239.626 138.728 240.416C138.894 240.704 138.998 241.024 139.034 241.355C138.994 241.64 138.908 241.915 138.779 242.172C138.621 242.675 138.571 243.205 138.632 243.729C138.692 244.253 138.863 244.758 139.132 245.211C139.674 246.114 140.343 246.934 141.118 247.647C140.748 249.279 140.844 250.982 141.395 252.562C141.434 252.633 141.46 252.711 141.469 252.792C141.479 252.873 141.472 252.955 141.45 253.034C141.373 253.195 141.178 253.255 141.025 253.37C140.599 253.718 140.863 254.377 141.148 254.832C141.929 256.081 142.792 257.277 143.73 258.412C144.581 259.428 144.504 261.388 145.772 261.753C146.304 261.868 146.855 261.868 147.388 261.753C148.639 261.562 150.034 261.201 150.646 260.095C150.897 259.64 150.999 259.088 151.391 258.748C151.782 258.408 152.288 258.348 152.505 257.94C152.722 257.532 152.48 256.996 152.552 256.524C152.624 256.052 153.037 255.674 153.169 255.176C153.483 254.029 152.144 253.085 151.961 251.911C151.697 250.211 153.841 248.935 153.751 247.235C153.564 243.54 153.445 239.829 153.254 236.135C153.014 232.825 152.979 229.504 153.152 226.191C153.301 224.129 153.577 221.969 152.82 220.052C151.731 217.348 148.728 215.83 145.823 215.541C142.917 215.252 140.021 215.94 137.141 216.391C132.362 217.127 127.506 217.229 122.7 216.693V216.693Z" fill="#EE7168"/>
<path d="M131.335 176.058C135.098 176.058 138.149 173.009 138.149 169.248C138.149 165.486 135.098 162.437 131.335 162.437C127.571 162.437 124.521 165.486 124.521 169.248C124.521 173.009 127.571 176.058 131.335 176.058Z" fill="#FBBEBE"/>
<path d="M128.561 177.329C128.33 177.868 127.941 178.324 127.445 178.638C126.949 178.951 126.37 179.107 125.784 179.085C125.537 180.106 126.128 181.134 126.805 181.938C128.209 183.571 130.024 184.801 132.062 185.5C134.1 186.198 136.288 186.341 138.4 185.913C139.222 185.766 140.002 185.441 140.684 184.961C141.605 184.193 142.223 183.123 142.428 181.942C142.624 180.77 142.68 179.578 142.594 178.392C142.618 178.158 142.551 177.924 142.407 177.738C142.237 177.606 142.027 177.537 141.811 177.542C140.374 177.414 138.872 177.359 137.609 176.653C136.346 175.948 135.448 174.353 136.056 173.044C135.959 173.248 133.474 173.346 133.147 173.388C132.122 173.533 131.097 173.695 130.076 173.882C129.585 173.909 129.1 174 128.634 174.154C128.017 174.473 128.247 174.315 128.391 174.893C128.608 175.778 128.927 176.411 128.561 177.329Z" fill="#FBBEBE"/>
<path d="M133.747 181.47C132.829 181.481 131.913 181.38 131.02 181.168C130.118 180.958 129.323 180.428 128.783 179.676C128.468 179.2 128.264 178.601 127.762 178.333C126.941 177.908 126.005 178.626 125.35 179.285C124.754 179.935 124.062 180.491 123.3 180.935C122.389 181.415 121.326 181.585 120.467 182.151C119.796 182.657 119.219 183.279 118.765 183.987L112.738 192.192C110.318 195.491 108.212 199.033 106.056 202.515C104.188 205.529 103.21 208.998 101.802 212.25C101.69 212.449 101.644 212.678 101.67 212.905C101.721 213.126 101.989 213.305 102.176 213.177C101.542 213.806 102.1 214.878 101.951 215.762C101.782 216.381 101.429 216.934 100.938 217.348C101.875 217.226 102.825 217.27 103.746 217.479C104.697 217.749 105.595 218.18 106.4 218.755C106.915 218.674 106.868 217.76 107.251 217.42C107.48 217.22 107.821 217.246 108.123 217.186C109.258 216.965 109.709 215.6 110.581 214.831C111.309 214.189 112.338 213.981 113.108 213.377C114.359 212.395 114.627 210.648 115.282 209.198C115.839 207.969 116.715 206.898 117.204 205.639C117.523 204.823 117.676 203.939 118.132 203.186C118.859 201.97 120.229 201.324 121.534 200.742C122.36 200.372 123.236 199.989 124.125 200.049C124.078 202.026 123.827 203.973 124.257 205.903C124.406 206.583 124.614 207.246 124.793 207.922C125.605 210.966 125.797 214.138 125.835 217.275C127.789 216.828 129.785 216.589 131.79 216.561C133.368 216.514 134.942 216.719 136.52 216.689C138.392 216.655 140.242 216.293 142.113 216.166C143.985 216.038 145.942 216.166 147.596 217.016C147.462 214.322 147.537 211.621 147.822 208.938L148.273 204.713C148.374 203.485 148.564 202.266 148.838 201.065C149.085 200.096 149.442 199.16 149.715 198.195C150.672 194.794 150.497 191.163 150.314 187.622C150.221 185.802 149.519 184.013 148.694 182.393C148.395 181.791 148.054 181.212 147.673 180.658C146.676 179.285 145.347 178.187 143.81 177.466C142.273 176.744 140.579 176.424 138.885 176.534C138.669 176.541 138.455 176.587 138.255 176.67C137.896 176.9 137.616 177.234 137.452 177.627C136.571 179.208 135.295 180.533 133.747 181.47Z" fill="#EE7168"/>
<path d="M125.341 171.505C125.533 171.08 126.048 170.923 126.362 170.583C126.966 169.936 126.694 168.903 126.788 168.032C126.941 166.756 128 165.689 129.212 165.234C130.449 164.838 131.764 164.754 133.041 164.992C133.655 165.037 134.249 165.234 134.768 165.566C134.989 165.727 135.193 165.936 135.401 166.085C135.781 166.314 136.236 166.386 136.668 166.285C137.101 166.184 137.476 165.919 137.715 165.545C136.209 163.734 134.542 161.82 132.254 161.263C131.469 161.103 130.669 161.028 129.867 161.038C128.808 161.017 127.715 161 126.737 161.404C125.405 161.952 124.469 163.215 123.989 164.575C123.568 165.954 123.344 167.385 123.321 168.827C123.234 169.788 123.234 170.756 123.321 171.718C123.485 173.031 123.974 174.283 124.742 175.361C124.846 175.528 124.992 175.665 125.167 175.756C127.107 176.607 125.184 171.858 125.341 171.505Z" fill="#EE7168"/>
<path d="M137.494 164.495C137.26 162.492 135.831 160.838 134.312 159.508C133.088 158.354 131.63 157.477 130.037 156.936C128.434 156.464 126.588 156.566 125.214 157.522C124.108 158.292 123.406 159.516 122.866 160.749C122.156 162.204 121.805 163.807 121.841 165.426C121.947 167.033 122.73 168.661 124.125 169.473C124.627 168.733 125.499 168.351 126.337 168.049C129.989 166.664 133.714 165.477 137.494 164.495V164.495Z" fill="#FED253"/>
<path opacity="0.1" d="M124.593 163.661C124.729 163.661 124.818 163.802 124.886 163.916C125.233 164.456 125.53 165.025 125.775 165.617C125.278 165.723 124.423 165.842 124.176 165.404C124.044 165.183 124.202 163.64 124.593 163.661Z" fill="black"/>
<path opacity="0.1" d="M134.287 162.7C134.185 162.798 134.066 162.598 134.066 162.454V160.804C134.063 160.758 134.073 160.713 134.095 160.672C134.113 160.652 134.135 160.636 134.159 160.624C134.183 160.613 134.209 160.606 134.236 160.604C134.58 160.566 134.865 160.86 135.087 161.14C135.422 161.595 135.714 162.08 135.958 162.59L134.159 162.535" fill="black"/>
<path d="M156.742 190.016C157.133 189.644 157.551 189.302 157.992 188.991C159.17 188.204 160.595 187.894 161.918 187.392C163.241 186.891 164.585 186.079 165.1 184.761C165.358 183.937 165.442 183.068 165.347 182.21C165.359 181.851 165.295 181.493 165.16 181.16C164.998 180.866 164.767 180.615 164.488 180.429C162.692 179.102 160.285 178.996 158.056 179.132C153.142 179.437 148.325 180.638 143.845 182.678C143.608 182.756 143.4 182.904 143.249 183.103C143.162 183.287 143.122 183.49 143.134 183.694C143.055 184.947 143.218 186.205 143.615 187.397C144.202 188.91 145.41 190.13 145.916 191.674C146.146 192.367 146.222 193.102 146.422 193.799C146.586 194.519 147.012 195.153 147.618 195.576C149.298 196.58 150.884 195.232 152.05 194.186L156.742 190.016Z" fill="#EE7168"/>
<path d="M134.738 195.904L132.581 191.202C132.265 190.55 131.992 189.878 131.764 189.191C131.518 188.37 131.399 187.52 131.169 186.695C130.412 183.949 128.502 181.662 127.57 178.971C127.511 178.728 127.391 178.504 127.222 178.32C127.086 178.224 126.93 178.159 126.766 178.129C126.602 178.1 126.434 178.107 126.273 178.15C124.971 178.375 123.955 179.366 122.764 179.927C122.211 180.182 121.615 180.352 121.062 180.646C120.786 180.776 120.541 180.965 120.344 181.199C120.148 181.433 120.004 181.707 119.922 182.002C119.79 182.652 120.114 183.277 120.386 183.911C121.543 186.521 121.807 189.437 121.858 192.294C121.896 194.216 121.798 196.278 120.662 197.821C118.48 200.797 119.876 205.168 120.692 208.768C120.79 209.194 120.905 209.653 120.973 210.103C121.045 210.667 121.078 211.236 121.071 211.804C121.071 213.713 120.964 215.681 120.165 217.412C120.954 217.831 121.824 218.078 122.717 218.134C125.187 218.449 127.667 218.67 130.157 218.797C130.937 218.871 131.723 218.831 132.492 218.678C133.405 218.432 134.209 217.888 134.778 217.134C135.348 216.379 135.649 215.457 135.635 214.512C135.771 215.69 136.022 216.969 136.877 217.786C137.732 218.602 138.979 218.725 140.14 218.789C143.417 218.963 146.703 218.87 149.966 218.513C150.174 218.503 150.379 218.456 150.57 218.372C151.199 218.058 151.233 217.19 151.182 216.493C151.089 215.188 150.991 213.883 150.833 212.586C150.7 211.76 150.632 210.924 150.629 210.086C150.694 209.225 150.836 208.371 151.055 207.536C151.625 204.883 152.075 202.175 151.884 199.458C151.808 198.796 151.781 198.13 151.803 197.464C151.914 195.963 152.705 194.535 152.556 193.043C152.131 188.655 151.786 184.153 150.561 179.919C150.34 179.162 150.059 178.35 149.4 177.916C148.549 177.346 147.354 177.644 146.38 177.283C145.923 177.07 145.488 176.812 145.083 176.513C144.201 175.962 143.191 175.652 142.152 175.612C141.369 175.582 140.497 175.756 140.025 176.386C139.806 176.74 139.662 177.135 139.6 177.546C138.983 180.14 138.26 182.703 137.537 185.267L136.843 187.724L134.984 194.322C134.802 195.024 134.925 195.241 134.738 195.904Z" fill="#6783BB"/>
<path d="M145.614 170.162L186.759 213.377V217.042H168.414L137.494 176.709" fill="#F1C0C0"/>
<path opacity="0.1" d="M145.614 170.162L186.759 213.377V217.042H168.414L137.494 176.709" fill="black"/>
<path opacity="0.1" d="M138.149 176.139L138.281 176.186L168.677 213.377H186.759V217.042H168.414L137.494 176.709L138.149 176.139Z" fill="black"/>
<path d="M142.883 177.049C141.395 177.699 139.74 178.533 139.293 180.097C139.205 180.372 139.186 180.664 139.238 180.947C139.347 181.281 139.554 181.574 139.833 181.787C140.112 182 140.449 182.124 140.799 182.142C141.5 182.159 142.196 182.032 142.845 181.768L151.629 178.868C151.867 178.792 152.139 178.677 152.199 178.443C152.214 178.296 152.184 178.148 152.114 178.018C151.842 177.355 151.574 175.999 151.004 175.535C150.536 175.161 149.608 175.293 149.043 175.302C146.865 175.319 144.819 176.199 142.883 177.049Z" fill="#6783BB"/>
<path d="M150.714 179.213C152.194 179.209 153.665 179.437 155.074 179.889C156.489 180.348 157.743 181.204 158.686 182.355C158.96 182.676 159.155 183.058 159.256 183.468C159.341 183.894 160.727 184.149 160.421 184.438C161.353 184.289 161.131 184.727 162.076 184.718C163.02 184.71 164.041 184.468 164.607 183.715C165 183.097 165.175 182.365 165.104 181.636C165.117 181.131 165.021 180.63 164.824 180.165C164.398 179.272 163.42 178.792 162.518 178.38L154.921 174.906C154.48 174.672 154.007 174.504 153.517 174.409C153.105 174.37 152.69 174.38 152.28 174.439L148.838 174.834C149.591 175.321 150.204 175.995 150.616 176.79C151.029 177.586 151.227 178.475 151.191 179.37" fill="#EE7168"/>
</g>
<defs>
<clipPath id="clip0_39_114">
<rect width="501" height="308" fill="white"/>
</clipPath>
</defs>
</svg>
